<?xml version='1.0' encoding='iso-8859-1'?>
<!DOCTYPE svg PUBLIC '-//W3C//DTD SVG 1.1//EN' 'http://www.w3.org/Graphics/SVG/1.1/DTD/svg11.dtd'>
<svg version="1.1" xmlns="http://www.w3.org/2000/svg" viewBox="0 0 315.038 315.038" xmlns:xlink="http://www.w3.org/1999/xlink" enable-background="new 0 0 315.038 315.038">
  <g>
    <circle cx="109.857" cy="26.186" r="25.907"/>
    <path d="m268.844,23.5c0-4.694-3.806-8.5-8.5-8.5h-19.032v-7.417c0-4.188-3.395-7.583-7.583-7.583h-46.833c-4.188,0-7.583,3.395-7.583,7.583v31.833c0,4.188 3.395,7.583 7.583,7.583h46.833c4.188,0 7.583-3.395 7.583-7.583v-7.416h10.532v26.229l-44.669,17.735c-3.237,1.286-5.363,4.417-5.363,7.9v18.938l-25.883,8.095-2.889-22.005c-0.552-15.818-13.632-28.542-29.563-28.542h-67.24c-16.23,0-29.5,13.203-29.581,29.433l-.462,91.833c-0.034,6.903 5.533,12.527 12.438,12.563 0.021,0 0.042,0 0.063,0 6.874,0 12.464-5.555 12.499-12.438l.462-91.833c0.007-1.368 1.12-2.472 2.487-2.468 1.367,0.004 2.473,1.113 2.473,2.48l.005,210.117c0,8.284 6.716,15 15,15 8.284,0 15-6.716 15-15 0-4.4 0-96.881 0-116.601 0-1.82 1.475-3.295 3.295-3.295 1.758,0 3.182,1.424 3.182,3.181 0,18.734 0,110.063 0,116.715 0,8.284 6.716,15 15,15 8.284,0 15-6.716 15-15l-.266-209.965c-0.002-1.374 1.061-2.514 2.431-2.61 1.37-0.095 2.583,0.886 2.77,2.247 0.009,0.066 0.017,0.132 0.024,0.198 0.473,4.382-0.294-1.483 5.02,38.983 0.48,3.659 2.553,6.919 5.663,8.906 3.065,1.959 6.885,2.513 10.461,1.397l32.61-10.198v14.624c0,4.694 3.806,8.5 8.5,8.5 4.694,0 8.5-3.806 8.5-8.5v-19.94l1.23-.385c6.589-2.061 10.261-9.072 8.2-15.661-1.407-4.497-5.121-7.631-9.431-8.515v-9.484l44.671-17.734c3.237-1.286 5.363-4.417 5.363-7.9v-40.5z"/>
  </g>
</svg>
