<?xml version="1.0" encoding="utf-8"?>
<!-- Generator: Adobe Illustrator 19.0.0, SVG Export Plug-In . SVG Version: 6.00 Build 0)  -->
<svg version="1.1" id="Layer_1" xmlns="http://www.w3.org/2000/svg" xmlns:xlink="http://www.w3.org/1999/xlink" x="0px" y="0px"
	 viewBox="-467 55 336 233.9" style="enable-background:new -467 55 336 233.9;" xml:space="preserve">
<style type="text/css">
	.st0{fill:none;stroke:#000000;stroke-miterlimit:10;}
</style>
<g>
	<path class="st0" d="M-413.2,181.3c-0.2-1.4-0.4-3.2-0.5-4.1c-1.5-13.9,1.6-27.5,8.8-39.3c0.8-1.3,1.5-2.4,2-3.2
		c0.8,0.8,1.6,1.8,2.1,2.3l15,16.7c4,4.4,4,4.4,2.8,8.8c-1.5,6.2-1.5,6.2-6.8,8.5l-19.4,8.7C-409.9,179.9-411.7,180.7-413.2,181.3z"
		/>
	<path class="st0" d="M-377.7,113.5c13-5.9,28.1-7.3,41.9-3.8c0.8,0.2,1.4,0.4,1.9,0.5c-0.4,0.7-0.8,1.5-1.3,2.4
		c-3.7,6.4-7.4,12.8-11.1,19.2c-3.3,5.8-3.3,5.8-8.2,6.3c-1.4,0.1-2.5,0.2-3.5,0.2c-2.2,0-2.7,0-6.5-4.1c-5-5.6-9.9-11.2-15-16.8
		c-0.4-0.5-1.2-1.4-1.9-2.2C-380,114.6-378.4,113.8-377.7,113.5z"/>
	<path class="st0" d="M-362.3,158.1c-6.7,6-7.3,16.4-1.3,23.1c3.1,3.5,7.6,5.5,12.3,5.5c4,0,7.9-1.5,10.8-4.2
		c3.3-2.9,5.2-7,5.5-11.3c0.2-4.3-1.3-8.5-4.2-11.8C-345,153-355.7,152.3-362.3,158.1z"/>
	<path d="M-142.6,210.5c-0.9-0.3-3.1-1.3-3.4-1.1c-0.2-0.4-0.3-2.1-0.4-2.7c-0.1-1.2-0.2-2-0.3-2c0.3-0.4,1.4-1.3,3.4-2.6
		c8.5-6,11.9-9.8,6.7-19.3c-1.5-2.6-3.9-7-9.5-7c-2.8,0-5.7,1.1-10.2,3.1c-0.7,0.3-3,1.3-2.9,1.5c-0.3-0.1-1-0.6-2-1.5
		c-0.4-0.3-1.7-1.4-1.8-1.4c-0.1-0.8,0.4-3.7,0.6-4.9c1.6-8.7,1.8-14.6-9-17.7c-1.7-0.5-3.4-0.9-5.1-0.9c-6.8,0-9.1,6-11.5,11.9
		c-0.3,0.8-1.2,3.2-1.1,3.3c-0.4,0.2-2.1,0.3-2.7,0.4c-0.8,0.1-1.5,0.1-1.9,0.3c-0.6-0.4-2.2-2.8-2.8-3.7c-3.4-4.9-6.3-9.1-11.5-9.1
		c-2.7,0-4.9,1.1-7.3,2.5c-9.8,5.4-8,10.8-4.4,19.1c0.4,1,1.5,3.5,1.7,3.6c-0.2,0.4-1.3,1.7-1.6,2.2c-0.3,0.4-1.2,1.5-1.4,1.6
		c-1.1,0-2.5-0.3-4.4-0.6c-3.2-0.6-5.5-0.9-7.2-0.9c-8,0-9.7,6.1-10.6,9.4c-3,10.6,2,13.5,10.6,16.9c0.9,0.4,3.3,1.4,3.5,1.1
		c0.1,0.4,0.3,1.9,0.3,2.4c0.1,0.6,0.2,2.3,0.3,2.3c-0.4,0.5-2.6,2.1-3.8,2.8c-7.5,5.3-11.9,9-6.6,18.5c1.8,3.2,4.1,7.5,9.7,7.5
		c2.6,0,5.1-0.9,9.9-2.9c2.1-0.9,3.4-1.4,3.3-1.5c0.3,0.1,0.9,0.6,2,1.5c1.3,1,1.7,1.7,1.8,1.3c0.1,0.7-0.4,3.5-0.6,4.5
		c-1.8,10-1.6,15.1,8.7,18c1.8,0.5,3.6,1,5.4,1c6.7,0,8.9-5.7,11.3-11.6c0.4-0.9,1.4-3.4,1.1-3.5c0.4-0.1,1.9-0.3,2.7-0.3
		c1-0.1,1.7-0.2,2.1-0.4c0.5,0.4,1.9,2.4,2.7,3.6c3.3,4.7,6.3,9.1,11.7,9.1c2.7,0,5-1.1,7.3-2.4c9.7-5.4,7.9-11,4.1-19.7
		c-1-2.3-1.3-3.4-1.5-3c0.2-0.4,1.2-1.6,1.6-2.1c0.3-0.4,1.3-1.5,1.4-1.6c1.1,0,2.5,0.3,4.5,0.6c3.1,0.5,5.3,0.9,7,0.9
		c8,0,9.8-6.3,10.8-9.6C-128.9,216.8-134,213.9-142.6,210.5z M-143.2,224.1c-0.1,0.4-0.2,0.7-0.3,1c-1-0.1-2.3-0.3-4-0.6
		c-2.9-0.5-5-0.8-6.6-0.8c-5.8,0-8.3,3.2-10.5,5.9c-5.1,6-5.4,9.3-1.9,17.4c0.4,1,1.3,2.9,1.7,4.2c-0.2,0.1-0.5,0.3-0.8,0.4
		c-0.4,0.2-0.7,0.4-0.9,0.5c-0.9-1.1-2.2-2.9-2.7-3.6c-3.9-5.7-5.8-9.2-15.6-8.2c-8.3,0.7-10.4,3-13.7,11.2c-0.4,0.9-1,2.7-1.6,3.9
		c-0.3-0.1-0.5-0.2-0.9-0.3c-0.2-0.1-0.6-0.2-1-0.3c0.2-1.4,0.5-3.4,0.7-4.3c1.5-8.6,1-11.9-5.3-17c-2.2-1.8-4.9-4.1-8.9-4.1
		c-2.7,0-5.3,1-8.5,2.4c-0.8,0.3-2.7,1.2-4,1.6c-0.2-0.4-0.5-0.8-0.6-1.1c-0.1-0.2-0.3-0.4-0.3-0.6c1.1-0.9,2.7-2,3.4-2.5
		c7.4-5.1,9.2-7.5,8.4-15.9c-0.7-8.1-3.2-10.3-11.2-13.4c-0.9-0.3-2.7-1.1-3.9-1.7c0.1-0.3,0.2-0.7,0.3-1.1c0.1-0.3,0.1-0.5,0.2-0.7
		c1.1,0.1,2.4,0.3,4.1,0.7c2.9,0.5,4.9,0.8,6.5,0.8c5.7,0,8.4-3.3,10.6-6c5.3-6.5,5.1-9.7,1.6-17.9c-0.5-1-1.1-2.5-1.5-3.7
		c0.2-0.1,0.5-0.3,0.8-0.5c0.3-0.2,0.7-0.4,0.9-0.5c0.9,1.1,2,2.7,2.5,3.5c3.2,4.6,5.9,8.5,12.4,8.5c0.9,0,1.9-0.1,3.2-0.2
		c8-0.8,10.3-2.7,13.6-11.1c0.3-0.8,1.1-2.8,1.7-4.1c0.2,0,0.4,0.1,0.7,0.2c0.5,0.1,0.9,0.3,1.2,0.3c-0.1,1.3-0.5,3.1-0.6,3.8
		c-1.6,8.9-1.1,12.1,5.2,17.5c2.2,1.8,5,4.1,8.9,4.1c2.6,0,5.1-1,8.2-2.3c1-0.4,3-1.3,4.3-1.8c0.1,0.2,0.2,0.4,0.3,0.6
		c0.2,0.4,0.4,0.8,0.6,1.1c-1.1,1-3,2.3-3.7,2.8c-6.9,4.7-8.9,7.4-8.1,15.5c0.9,8.4,3.3,10.5,11.2,13.6c1.8,0.7,3.1,1.3,4,1.7
		C-143,223.4-143.1,223.7-143.2,224.1z"/>
	<path class="st0" d="M-257.6,204.8c-5.2-3.8-5.6-4-3.5-12.6c2.1-8.5,2.1-8.5,10-9.7c12.7-1.9,18.5-4.3,17.7-17.7
		c-0.6-13.1-6.5-15.5-20.3-16.3c-7-0.4-7-0.4-10.2-9.3c-2.8-8-2.8-8,2.8-13c9.5-8.5,13.2-13.7,5-25c-2.4-3.3-5.6-7.9-11.6-7.9
		c-3.7,0-7.2,1.7-13.4,5.2c-1.5,0.9-4.9,2.9-6.3,2.9c-1.3,0-4.5-2.6-6.3-4c-8.3-6.5-8.3-6.5-6.8-11.9c3.8-13.5,4.1-19.9-8.7-24.7
		c-3-1.2-5.7-2.2-8.5-2.2c-7.3,0-10.6,6.4-14.7,14.6c-2.3,4.5-2.3,4.5-6.4,4.5c-1.6,0-3.4-0.1-5.7-0.2c-8.9-0.5-8.9-0.5-11.1-7.3
		c-2.3-7.2-4.8-15.4-14.1-15.4c-2,0-4.1,0.4-6,0.8c-13.8,3.1-14.6,8.5-13.2,22.1c0.8,7,0.8,7-5.4,10.1c-1.4,0.7-4.6,2.3-5.7,2.3
		c-0.9,0-4-2.9-5.1-3.8c-5.4-5-9.4-8.3-14.3-8.3c-4.4,0-7.7,2.6-11.3,5.8c-10,8.9-7.6,14.6,0.2,25.2c4,5.4,4,5.4-0.9,13.8
		c-4.1,6.9-4.8,6.9-6.4,6.9h0c-1.4,0-3-0.3-5.2-0.6c-3.9-0.6-6.9-1-9-1c-9.7,0-11.7,7.2-13.1,12.5c-3.6,13.5,1,16.7,14.2,21.7
		c6.2,2.4,6.2,2.4,6.7,12c0.4,8.6,0.4,8.6-5.4,11.2c-13.2,5.7-17.8,9-13.5,22.4c1.6,5,3.9,11.8,13.1,11.8c2.9,0,6.4-0.6,11.1-1.6
		c1.8-0.4,3.7-0.8,5-0.8c1.2,0,2.1,0,6.9,6.7c5.1,7.1,5.1,7.1,1,13.3c-7.4,11.1-9.5,16.9,1,25.6c3.5,2.8,6.7,5.2,10.8,5.2
		c5.2,0,9-3.6,14.8-9.4c3.4-3.5,5-4.6,5.9-4.6c1.5,0,4.6,1.2,7.4,2.4c8.3,3.3,8.3,3.3,8.2,11.4c-0.1,13.2,1.4,19.2,15.8,20.6
		c1.5,0.2,2.8,0.3,4,0.3c10.6,0,12.4-8.6,14.3-17.7c1.7-7.9,1.7-7.9,10.4-9.6c2.7-0.5,4.7-0.9,6.4-0.9c1.6,0,2.3,0,5.7,5.5
		c4.4,6.8,8.1,12.7,15.1,12.7c3,0,5.8-1.1,9.3-2.9c12.1-6,11.1-12.8,6.1-25.8c-2.6-6.5-2.6-6.5,3.7-12.6c3.4-3.2,5.6-5,6.7-5
		c1.4,0,4.2,1.2,6.7,2.4c5.9,2.7,9.6,4.1,13,4.1c6.8,0,10-5.5,12.3-9.5C-241.8,218-245.9,213.4-257.6,204.8z"/>
	<path class="st0" d="M-363.6,231.8c-13.2-2.5-25.4-9.5-34.4-19.7c-0.8-0.9-2.5-2.8-3.6-4.2c1.5-0.8,3.5-1.6,4.4-2.1l19-8.5
		c1.6-0.7,4.3-1.9,5.1-1.9c0.6,0,3.2,1.6,4.4,2.4c5.6,3.4,5.6,3.4,6.2,9.6c0.7,6.5,1.3,12.8,2.1,20.6c0.2,2,0.3,3.4,0.3,4.4
		C-361,232.3-362.2,232.1-363.6,231.8z"/>
	<path class="st0" d="M-296.3,200.2c-6.6,12.1-17.1,21.8-29.5,27.4c-1,0.4-3.4,1.5-5.2,2.2c-0.2-1-0.4-2.4-0.6-4.6l-2.2-20.8
		c-0.6-5.7-0.6-5.7,3.9-9.7c3.7-3.3,4.4-3.8,5.1-3.8c1,0,2.9,0.4,5.1,0.9c6.5,1.4,12.9,2.8,19.3,4.1c2.5,0.5,4.3,1,5.6,1.4
		C-295.1,197.9-295.5,198.9-296.3,200.2z"/>
	<path class="st0" d="M-292.9,167.8l-21-4.5c-5.3-1.1-5.3-1.1-8.4-7.4c-0.7-1.3-1.8-3.6-1.8-4.1c0.1-0.8,1.8-3.8,2.5-5l11.2-19.4
		c0.3-0.6,1.1-1.9,1.8-3c1.4,1.3,3.1,3.3,3.8,4.1c9.1,10.1,14.6,22.6,15.7,36.3c0.2,1.7,0.3,2.9,0.3,3.8
		C-290.2,168.4-291.9,168-292.9,167.8z"/>
</g>
</svg>
