<?xml version="1.0" encoding="iso-8859-1"?>
<!-- Generator: Adobe Illustrator 17.1.0, SVG Export Plug-In . SVG Version: 6.00 Build 0)  -->
<!DOCTYPE svg PUBLIC "-//W3C//DTD SVG 1.1//EN" "http://www.w3.org/Graphics/SVG/1.1/DTD/svg11.dtd">
<svg version="1.1" id="Capa_1" xmlns="http://www.w3.org/2000/svg" xmlns:xlink="http://www.w3.org/1999/xlink" x="0px" y="0px"
	 viewBox="0 0 351.003 351.003" style="enable-background:new 0 0 351.003 351.003;" xml:space="preserve">
<g>
	<path d="M295.127,11.823c1.225-1.738,1.71-3.979,1.137-6.198c-1.036-4.01-5.129-6.422-9.139-5.384
		c-84.031,21.721-142.896,60.727-179.959,119.249c-8.884,14.027-11.222,34.864-6.947,61.933c2.815,17.834,7.593,32.312,8.547,35.1
		c-36.354,67.845-53.741,122.171-53.913,122.715c-1.251,3.948,0.936,8.163,4.884,9.415c0.754,0.239,1.517,0.352,2.268,0.352
		c3.183,0,6.136-2.042,7.147-5.237c0.169-0.532,17.289-54.024,53.332-121.09c0.015-0.027,0.03-0.055,0.044-0.081
		c13.248-1.702,61.252-9.985,85.495-42.621c34.996-47.11,61.02-97.317,87.017-167.88c0.003-0.008,0.005-0.016,0.008-0.024
		C295.076,11.989,295.1,11.906,295.127,11.823z M200.823,164.397l-48.538,7.355c4.268-6.71,8.746-13.52,13.434-20.389l52.428-12.583
		C212.608,147.517,206.85,156.023,200.823,164.397z M114.699,141.05l15.199,38.359c-3.843,6.361-7.494,12.596-10.945,18.664
		C114.841,181.865,111.042,158.705,114.699,141.05z M154.705,84.957c26.672-25.454,60.379-45.24,101.689-59.748
		c-36.84,31.795-68.035,68.438-93.665,104.25L154.705,84.957z M229.084,120.729l-50.259,12.062
		c25.463-34.88,56.257-70.239,92.455-100.57C257.916,65.811,244.262,94.511,229.084,120.729z M141.861,98.255l8.76,48.578
		c0.004,0.022,0.011,0.044,0.016,0.066c-3.768,5.595-7.405,11.148-10.895,16.632l-15.767-39.792
		c-0.201-0.509-0.455-0.98-0.748-1.417C128.914,113.854,135.122,105.835,141.861,98.255z M131.829,205.776
		c3.196-5.626,6.57-11.4,10.108-17.285l43.764-6.631c-11.59,9.805-25.917,15.905-37.166,19.521
		C142.406,203.352,136.658,204.77,131.829,205.776z"/>
	<path d="M269.159,265.64c-0.573-0.089-1.14-0.105-1.694-0.066c-0.154-0.009-0.307-0.023-0.463-0.023h-21.5v-26.048
		c0-4.142-3.357-7.5-7.5-7.5h-59c-4.143,0-7.5,3.358-7.5,7.5v26.048h-21.5c-0.061,0-0.118,0.007-0.178,0.009
		c-0.133,0.003-0.267,0.009-0.4,0.02c-0.136,0.01-0.27,0.025-0.402,0.042c-0.06,0.008-0.117,0.009-0.177,0.019
		c-0.052,0.008-0.101,0.022-0.151,0.032c-0.146,0.025-0.291,0.056-0.434,0.09c-0.102,0.024-0.204,0.05-0.305,0.079
		c-0.136,0.039-0.27,0.082-0.402,0.127c-0.107,0.037-0.211,0.074-0.314,0.115c-0.119,0.047-0.236,0.098-0.352,0.151
		c-0.111,0.051-0.222,0.103-0.329,0.159c-0.104,0.053-0.204,0.111-0.305,0.169c-0.112,0.065-0.223,0.13-0.331,0.201
		c-0.093,0.061-0.183,0.124-0.271,0.188c-0.107,0.077-0.214,0.154-0.316,0.237c-0.086,0.068-0.169,0.14-0.251,0.211
		c-0.098,0.085-0.193,0.171-0.286,0.26c-0.083,0.081-0.163,0.164-0.242,0.248c-0.083,0.088-0.165,0.177-0.244,0.269
		c-0.081,0.095-0.158,0.192-0.234,0.291c-0.069,0.089-0.137,0.178-0.201,0.27c-0.076,0.107-0.148,0.219-0.219,0.331
		c-0.056,0.09-0.112,0.179-0.165,0.271c-0.066,0.118-0.129,0.238-0.19,0.36c-0.048,0.095-0.095,0.19-0.138,0.286
		c-0.055,0.121-0.104,0.244-0.151,0.368c-0.041,0.105-0.081,0.211-0.116,0.319c-0.04,0.118-0.075,0.237-0.108,0.357
		c-0.034,0.121-0.066,0.241-0.094,0.364c-0.025,0.111-0.047,0.223-0.067,0.335c-0.023,0.137-0.045,0.273-0.063,0.411
		c-0.013,0.105-0.022,0.212-0.03,0.319c-0.012,0.145-0.02,0.289-0.023,0.436c-0.001,0.053-0.008,0.104-0.008,0.158
		c0,0.061,0.008,0.12,0.009,0.18c0.004,0.132,0.01,0.265,0.02,0.398c0.01,0.135,0.024,0.269,0.042,0.403
		c0.008,0.059,0.009,0.117,0.018,0.176l11,70.452c0.009,0.057,0.023,0.11,0.033,0.166c0.022,0.123,0.047,0.245,0.075,0.365
		c0.025,0.113,0.055,0.225,0.086,0.335c0.032,0.116,0.065,0.23,0.103,0.344c0.039,0.118,0.083,0.233,0.128,0.348
		c0.039,0.101,0.077,0.201,0.12,0.299c0.057,0.127,0.117,0.25,0.18,0.373c0.042,0.082,0.082,0.165,0.126,0.246
		c0.078,0.141,0.164,0.277,0.251,0.412c0.037,0.058,0.07,0.118,0.109,0.175c0.117,0.172,0.242,0.337,0.373,0.498
		c0.015,0.018,0.027,0.038,0.043,0.057c0.148,0.179,0.305,0.351,0.468,0.515c0.044,0.044,0.093,0.084,0.138,0.128
		c0.119,0.114,0.238,0.226,0.364,0.331c0.077,0.065,0.157,0.123,0.237,0.184c0.1,0.077,0.199,0.155,0.303,0.227
		c0.093,0.064,0.188,0.123,0.283,0.183c0.098,0.061,0.195,0.123,0.296,0.18c0.101,0.057,0.204,0.11,0.307,0.163
		c0.103,0.052,0.206,0.103,0.312,0.15c0.104,0.046,0.207,0.09,0.313,0.132c0.114,0.046,0.232,0.088,0.349,0.128
		c0.1,0.034,0.198,0.067,0.3,0.097c0.137,0.04,0.275,0.074,0.414,0.106c0.086,0.021,0.171,0.043,0.259,0.06
		c0.178,0.035,0.358,0.061,0.54,0.083c0.054,0.006,0.106,0.016,0.16,0.022c0.241,0.023,0.485,0.038,0.732,0.038
		c0.004,0,0.009-0.001,0.013-0.001h94.996c0.204,0,0.404-0.015,0.605-0.03c0.135,0.007,0.27,0.031,0.404,0.031
		c3.632,0,6.823-2.644,7.401-6.344l11-70.452C276.05,270.115,273.252,266.279,269.159,265.64z M250.582,336.002h-83.16
		l-8.658-55.452H259.24L250.582,336.002z M186.502,247.002h44v18.548h-44V247.002z"/>
</g>
<g>
</g>
<g>
</g>
<g>
</g>
<g>
</g>
<g>
</g>
<g>
</g>
<g>
</g>
<g>
</g>
<g>
</g>
<g>
</g>
<g>
</g>
<g>
</g>
<g>
</g>
<g>
</g>
<g>
</g>
</svg>
